<svg width="56" height="56" viewBox="0 0 56 56" fill="none" xmlns="http://www.w3.org/2000/svg">
<path d="M30.5039 19.5V4.5C30.5039 2.01472 28.4892 0 26.0039 0H5.00391C2.51862 0 0.503906 2.01472 0.503906 4.5V19.5C0.503906 21.9853 2.51862 24 5.00391 24H26.0039C28.4892 24 30.5039 21.9853 30.5039 19.5Z" fill="#BDF4D0"/>
<rect x="6.5" y="10.5" width="3" height="3" rx="1.5" fill="#333333"/>
<rect x="20.5" y="10.5" width="3" height="3" rx="1.5" fill="#333333"/>
<rect x="13.5" y="9.75" width="4.5" height="4.5" rx="2.25" fill="#333333"/>
<path d="M42.681 28.4364L44.519 8.95065L26.5913 7.20722L23.4102 40.9326L41.3379 42.676" fill="url(#paint0_linear_3005_125125)"/>
<path d="M42.5475 28.5906L44.5197 8.95048L26.5919 7.20705L24.565 26.6493M34.2494 42.1722L41.3385 42.6759L41.8181 36.1767" stroke="#333333" stroke-width="2" stroke-miterlimit="10" stroke-linecap="round" stroke-linejoin="round"/>
<path d="M34.6398 20.0996C37.2789 20.3562 39.2095 22.7817 38.9515 25.5167C38.6935 28.2516 36.3447 30.2609 33.7056 30.0043C31.0665 29.7476 29.1359 27.3221 29.3939 24.5872C29.6519 21.8523 32.0007 19.8429 34.6398 20.0996Z" fill="#BDF4D0"/>
<path d="M52.6595 51.6687L54.1125 48.6572C54.4518 48.0729 54.839 45.285 54.839 44.6029V36.5433C54.839 34.6506 54.1518 32.8278 52.9131 31.4365L45.3946 23.0592L43.5176 21.8237" stroke="#333333" stroke-width="2" stroke-miterlimit="10" stroke-linecap="round" stroke-linejoin="round"/>
<path d="M40.3083 51.6687V49.4101C40.3083 49.4101 37.4023 46.3985 37.4023 43.387" stroke="#333333" stroke-width="2" stroke-miterlimit="10" stroke-linecap="square" stroke-linejoin="round"/>
<path d="M38.8545 54.6797V51.6682H54.8374V54.6797" stroke="#333333" stroke-width="2" stroke-miterlimit="10" stroke-linecap="round" stroke-linejoin="round"/>
<path d="M47.9361 34.3518L41.1151 27.3206C40.1263 26.2967 38.5077 26.2967 37.5189 27.3206C36.5302 28.3453 36.5302 30.0227 37.5189 31.0474L42.4874 36.6104C42.4874 36.6104 41.0344 42.6335 45.3934 45.645" stroke="#333333" stroke-width="2" stroke-miterlimit="10" stroke-linecap="round" stroke-linejoin="round"/>
<path d="M11.0629 41.3968C11.8726 43.9 14.3217 47.2596 14.3217 47.2596C14.3217 47.2596 9.84779 47.6012 7.19661 43.3321C4.79227 39.4605 4.76636 35.4771 4.76636 35.4771L1.23144 35.4771L8.0251 28.4759L14.6531 35.4771L11.0629 35.4771C11.0629 35.4771 10.1792 38.6646 11.0629 41.3968Z" stroke="#333333" stroke-width="2" stroke-linejoin="round"/>
<path d="M21.522 34.3451C20.7124 31.842 18.2633 28.4823 18.2633 28.4823C18.2633 28.4823 22.7372 28.1408 25.3884 32.4098C27.7927 36.2814 27.8186 40.2649 27.8186 40.2649L31.3535 40.2649L24.5599 47.2661L17.9319 40.2649L21.522 40.2649C21.522 40.2649 22.4058 37.0773 21.522 34.3451Z" stroke="#333333" stroke-width="2" stroke-linejoin="round"/>
<defs>
<linearGradient id="paint0_linear_3005_125125" x1="30.0032" y1="49.2035" x2="25.3347" y2="37.768" gradientUnits="userSpaceOnUse">
<stop stop-color="#BDF4D0"/>
<stop offset="1" stop-color="#BDF4D0" stop-opacity="0"/>
</linearGradient>
</defs>
</svg>
